<svg id="Layer_1" data-name="Layer 1" xmlns="http://www.w3.org/2000/svg" width="200" height="200" viewBox="0 0 200 200">
  <defs>
    <style>
      .cls-1 {
        fill: #fff;
      }
    </style>
  </defs>
  <g>
    <path class="cls-1" d="M153.6,195.4H20.6c-3.2,0-4.1-.8-4.1-4V34A6.1,6.1,0,0,1,18,30.4C24.4,23.9,31,17.3,37.4,11l4.8-4.8a9.4,9.4,0,0,1,1-1l.6-.6h138a4.2,4.2,0,0,1,1.7,3.8V165.6a5.8,5.8,0,0,1-1.8,4.4l-23.8,23.6a5.7,5.7,0,0,1-4.3,1.8Zm-1.4-5.9V168.2c0-3.3.9-4.2,4.2-4.2h21.2V10.5H47.8V32c0,3-1,4-4,4H22.3V189.5Zm5.7-4.6,14.7-15H157.9ZM41.9,30.2V15.4L27.2,30.2Z"/>
    <path class="cls-1" d="M181.5,5.1A3.6,3.6,0,0,1,183,8.5V165.6a5,5,0,0,1-1.7,4l-23.7,23.7a5.5,5.5,0,0,1-4,1.6H20.6c-2.9,0-3.6-.6-3.6-3.5V64.4c0-10.1-.1-20.3,0-30.4a4.9,4.9,0,0,1,1.4-3.2c8-8.2,16.1-16.2,24.2-24.3A18.5,18.5,0,0,1,44,5.1ZM21.8,190H152.7v-2.2c0-6.5-.1-13.1,0-19.6,0-3,.7-3.7,3.7-3.7h21.7V10H47.3V32c0,2.7-.8,3.5-3.5,3.5h-22ZM42.4,30.7V14.2L26,30.7Zm115,155.4c5.6-5.6,11.2-11.3,16.4-16.7H157.4Z"/>
    <path class="cls-1" d="M108.7,78.9c-3.6-.1-4.4-.8-4.4-4.4V39.1c0-3.1.9-4.1,4.1-4.1h58.5c3.3,0,4.2.9,4.2,4.1V74.7c0,3.3-.9,4.1-4.2,4.2H108.7ZM165.3,73V40.9H110.2V73Z"/>
    <path class="cls-1" d="M137.6,78.4H108.7c-3.3-.1-3.9-.6-3.9-3.9V39.1c0-2.8.7-3.6,3.6-3.6h58.5c3,0,3.7.7,3.7,3.6V74.7c0,3-.6,3.6-3.7,3.7Zm28.2-4.9V40.4H109.7V73.5Z"/>
    <path class="cls-1" d="M139.6,164.2a23.8,23.8,0,0,1-.1-47.6h.2a23.8,23.8,0,0,1,0,47.6Zm-3.8-6.3a16.4,16.4,0,0,0,3.8.4,17.9,17.9,0,0,0,12.8-5.4,15.4,15.4,0,0,0,4.7-9.7h-15a1.6,1.6,0,0,0-.7.4c-1.5,3.9-3.1,7.8-4.6,11.8Zm-10.7-28a17.8,17.8,0,0,0,5.4,25.9l.9-2.3,4.6-12c.1-.1,0-.6-.2-.8l-8.8-8.9Zm5.7-2.2,9.6,9.5a1.1,1.1,0,0,0,.8.3h16.1c-1.3-6.9-5-11.4-11.1-13.9a18.8,18.8,0,0,0-6.8-1.4,17.9,17.9,0,0,0-10.4,3.6Z"/>
    <path class="cls-1" d="M162.8,140.3a23.3,23.3,0,1,1-23.3-23.2A23.3,23.3,0,0,1,162.8,140.3Zm-4.9-2.2c-1.2-7.3-5-12.3-11.5-14.8s-12.4-1.7-18.2,2.5L140,137.5a1.8,1.8,0,0,0,1.2.5ZM125,129.2c-7.1,8.7-4.1,22.5,5.7,27.3,2-5,3.9-9.9,5.8-14.8a1.5,1.5,0,0,0-.3-1.3Zm10.1,29.1c12.2,3,22.5-6.9,22.5-15.6H142.1a1.4,1.4,0,0,0-1.1.7C139,148.3,137.1,153.2,135.1,158.3Z"/>
    <path class="cls-1" d="M47.3,118.7H35c-1.8,0-3-.4-3.6-1.4s-.3-2.2.6-3.8L43.3,93.8c1.1-1.8,2.2-2.2,2.9-2.2s2.1.7,2.9,2.2a23.2,23.2,0,0,1,1.4,2.3l.3.4,1.5-2.6,4.5-7.7c1-1.7,2-2.5,3.1-2.5s2.1.8,3.1,2.6l5.3,9,10.3,17.9a5.6,5.6,0,0,1,.8,3c-.2,2.5-2.6,2.5-3.5,2.5Zm-8.4-5.9,1.6.2c.8,0,1-.3,2-2.1l1.1-1.9a28.9,28.9,0,0,1,2.7-4.4c1.2-1.7,1.2-3-.1-4.4Zm32.8,0L59.9,92.3,48,112.8Z"/>
    <path class="cls-1" d="M50.8,97.5l6.4-11q2.7-4.6,5.4,0c5.2,9,10.4,18,15.5,27a4.5,4.5,0,0,1,.8,2.7c-.1,1.7-1.5,2-3,2-8-.1-15.9,0-23.9,0H35c-3.3,0-4.2-1.6-2.6-4.5L43.7,94.1c1.5-2.7,3.4-2.7,5-.1Zm21.8,15.8-12.7-22c-4.3,7.4-8.5,14.6-12.7,22ZM46.1,99.4l-8,13.8c3.3.6,3.4.6,4.8-2s2.3-4.4,3.8-6.4S48.1,101.2,46.1,99.4Z"/>
    <path class="cls-1" d="M37.9,147.8a2.8,2.8,0,0,1-1.8-.4c-.3-.2-1.8-1.4-1.7-2.5a4.3,4.3,0,0,1,1.8-2.5,1.4,1.4,0,0,1,1.1-.3H96.5a3.1,3.1,0,0,1,1.3.3,4.1,4.1,0,0,1,1.8,2.7c.1.9-.8,1.7-1.6,2.4h-.1a1.8,1.8,0,0,1-1.2.3H37.9Z"/>
    <path class="cls-1" d="M67,142.6H95.3c.8,0,1.7-.2,2.2.2s1.6,1.4,1.6,2.2-.9,1.5-1.6,2.1-.9.2-1.4.2H38.4a3.3,3.3,0,0,1-2-.3c-.7-.5-1.5-1.4-1.5-2a4.2,4.2,0,0,1,1.6-2.2c.3-.3,1.1-.2,1.6-.2Z"/>
    <path class="cls-1" d="M103.8,108.6a3.8,3.8,0,0,1-3-1,2.3,2.3,0,0,1-.7-1.9c0-1.1.5-2.9,3.8-2.9h58.7a2.8,2.8,0,0,1,2.9,2.8c0,1.6-1,2.6-2.8,2.9H103.8Z"/>
    <path class="cls-1" d="M132.8,103.3h29.8c1.4.1,2.4.8,2.4,2.3a2.3,2.3,0,0,1-2.3,2.4H103.8c-2.1,0-3.3-.9-3.2-2.4s1.1-2.4,3.3-2.4Z"/>
    <path class="cls-1" d="M89.8,65.7H30.6a2.3,2.3,0,0,1-1.4-.4c-.4-.3-1.7-1.5-1.7-2.6s.6-1.6,1.9-2.5a1.8,1.8,0,0,1,1.3-.3H88.1a11,11,0,0,1,2.5.2,2.8,2.8,0,0,1,1.9,1.2,2.2,2.2,0,0,1,.2,1.8,6,6,0,0,1-1.8,2.1l-.3.2A.8.8,0,0,1,89.8,65.7Z"/>
    <path class="cls-1" d="M60.2,65.2H31.5c-.7,0-1.5.2-2-.2A3.5,3.5,0,0,1,28,62.7c0-.7.9-1.5,1.7-2.1s1.1-.2,1.8-.2H88.1a9.7,9.7,0,0,1,2.4.2c1.3.2,2.1,1.1,1.7,2.3s-1.2,1.5-1.9,2.2-.8,0-1.3,0Z"/>
    <path class="cls-1" d="M54.5,138.8l-.9-.3c-.9-.7-2-1.5-2.1-2.5a4,4,0,0,1,1.9-2.7,3.1,3.1,0,0,1,1.5-.4H96.6a1.9,1.9,0,0,1,1.3.3c1.2,1.1,1.8,2,1.7,2.7s-1,1.7-1.8,2.3l-.2.2a1.3,1.3,0,0,1-.8.2H54.5Z"/>
    <path class="cls-1" d="M75.5,138.2h-20c-.5,0-1.2.2-1.6-.1s-1.8-1.4-1.9-2.1a3.5,3.5,0,0,1,1.7-2.3c.6-.4,1.5-.2,2.3-.2H95.8c.6,0,1.4-.1,1.8.2s1.6,1.5,1.5,2.3-1.1,1.5-1.8,2.1-.9.1-1.4.1Z"/>
    <path class="cls-1" d="M120.4,99.5a1.7,1.7,0,0,1-1.1-.3c-.7-.5-1.9-1.5-2-2.5s.6-1.6,1.9-2.6a1.5,1.5,0,0,1,1.1-.3h42.5a2.5,2.5,0,0,1,2.7,2.7,2.7,2.7,0,0,1-.7,2,2.9,2.9,0,0,1-2.1.8H120.4Z"/>
    <path class="cls-1" d="M141.5,94.3h21.3a2,2,0,0,1,2.2,2.2,2.1,2.1,0,0,1-2.3,2.3H121.6c-.7,0-1.5.2-2-.2a4,4,0,0,1-1.8-2.1c0-.8,1-1.7,1.7-2.2s1.2-.2,1.8-.2Z"/>
    <path class="cls-1" d="M48.8,56.5H47.4c-1.9-.1-2.9-1.1-2.9-2.8a2.7,2.7,0,0,1,2.8-2.8H89.2c3.2,0,3.6,1.7,3.6,2.8a2.6,2.6,0,0,1-.9,2.1,4.1,4.1,0,0,1-2.7.7H48.8Z"/>
    <path class="cls-1" d="M68.7,56H49.4a13.4,13.4,0,0,1-2,0c-1.4-.1-2.4-.8-2.4-2.3s.9-2.2,2.4-2.3H89.2c2.1,0,3.1.8,3.1,2.3s-1,2.3-3.1,2.3Z"/>
    <path class="cls-1" d="M83.2,184.9H73.3c-2.1,0-3.5-1.2-3.5-2.9s1.4-2.8,3.7-2.9H90c2.1,0,3.4,1.1,3.4,2.8a2.5,2.5,0,0,1-.7,1.9,3.6,3.6,0,0,1-2.7,1Z"/>
    <path class="cls-1" d="M81.6,179.7H90c1.8,0,2.9.9,2.9,2.3s-1.1,2.4-2.9,2.4H73.3c-1.9,0-3-1-3-2.4s1.2-2.3,3.2-2.4h8.1Z"/>
    <path class="cls-1" d="M116.8,184.9H110c-2.1,0-3.4-1.1-3.4-2.9s1.3-2.8,3.4-2.8h16.5c2.3.1,3.6,1.1,3.6,2.9s-1.3,2.9-3.6,2.9Z"/>
    <path class="cls-1" d="M118.3,179.6h8.2c2,.1,3.1.9,3.1,2.4s-1.1,2.4-3.1,2.4H110c-1.8,0-2.9-1-2.9-2.4s1.1-2.3,2.9-2.3h8.3Z"/>
    <path class="cls-1" d="M81.2,22.1H73.3c-2.2-.1-3.4-1.1-3.5-2.8a2.6,2.6,0,0,1,.8-1.9,3.7,3.7,0,0,1,2.7-1H89.9c2.2.1,3.5,1.1,3.5,2.8s-1.3,2.9-3.4,2.9H81.2Z"/>
    <path class="cls-1" d="M81.7,21.6H73.3c-1.9-.1-2.9-.9-3-2.3s1.1-2.4,3-2.4H89.9c1.9,0,3,.9,3,2.3s-1,2.4-2.9,2.4Z"/>
    <path class="cls-1" d="M109.8,22.1c-2,0-3.1-1-3.2-2.8a2.6,2.6,0,0,1,.6-1.9,4.1,4.1,0,0,1,2.6-1h16.9c2.1,0,3.4,1.1,3.4,2.8s-1.2,2.8-3.4,2.9H109.8Z"/>
    <path class="cls-1" d="M118.5,16.9h8.2c1.9,0,2.9.9,2.9,2.3s-1,2.3-2.9,2.4H109.8c-1.5,0-2.6-.6-2.7-2.3s1-2.3,2.7-2.4Z"/>
    <path class="cls-1" d="M39.2,138.7H37.3a2.8,2.8,0,0,1-2.9-2.7,2.5,2.5,0,0,1,.6-2.1,3.7,3.7,0,0,1,2.1-.9h9.8a2.8,2.8,0,0,1,2,.8,2.7,2.7,0,0,1,.6,2c0,1.7-1.1,2.7-2.9,2.8H39.2Z"/>
    <path class="cls-1" d="M42,138.2H37.4a2.2,2.2,0,0,1-2.5-2.2,2.2,2.2,0,0,1,2.2-2.5h9.8a2,2,0,0,1,2.1,2.3c0,1.4-.9,2.2-2.4,2.3Z"/>
    <path class="cls-1" d="M32.1,56.5H30.3a2.7,2.7,0,0,1-2.9-2.8,2.7,2.7,0,0,1,3-2.8h9.3a2.8,2.8,0,1,1,.1,5.6H32.1Z"/>
    <path class="cls-1" d="M35,56c-1.6,0-3.1.1-4.7,0a2.2,2.2,0,0,1-2.4-2.3,2.2,2.2,0,0,1,2.5-2.3h9.3a2.1,2.1,0,0,1,2.4,2.3A2.2,2.2,0,0,1,39.8,56Z"/>
    <path class="cls-1" d="M104.7,99.4h-1.9a2.6,2.6,0,0,1-2.7-2.7,2.7,2.7,0,0,1,.7-2,2.6,2.6,0,0,1,1.9-.8h10a2.8,2.8,0,0,1,0,5.5h-8Z"/>
    <path class="cls-1" d="M107.7,98.9h-4.9a2.1,2.1,0,0,1-2.2-2.2c0-1.4.7-2.3,2.1-2.3,3.4-.1,6.7-.1,10,0a2.1,2.1,0,0,1,2.1,2.2,2.2,2.2,0,0,1-2.2,2.3Z"/>
    <path class="cls-1" d="M102.9,24.1a2.7,2.7,0,0,1-2.6-2.8,12.1,12.1,0,0,1-.1-1.9V17.7a10.9,10.9,0,0,1,.1-1.8,2.7,2.7,0,0,1,2.6-2.8h.2a2.7,2.7,0,0,1,2.8,2.5q.1,3,0,6a2.6,2.6,0,0,1-2.7,2.5Z"/>
    <path class="cls-1" d="M100.7,18.5V15.9c.2-1.3.8-2.2,2.2-2.3a2.2,2.2,0,0,1,2.5,2,58,58,0,0,1,0,5.9,2.1,2.1,0,0,1-2.4,2.1,2.2,2.2,0,0,1-2.2-2.3,26.2,26.2,0,0,1-.1-2.8Z"/>
    <path class="cls-1" d="M103,186.8a2.6,2.6,0,0,1-2.7-2.7,52.3,52.3,0,0,1,0-5.6,2.5,2.5,0,0,1,2.4-2.6h.5a4.9,4.9,0,0,1,2.6,2.3,4.2,4.2,0,0,1,.2,2.2v1.4h0v.4a14.1,14.1,0,0,1-.1,2,2.6,2.6,0,0,1-2.8,2.6Z"/>
    <path class="cls-1" d="M105.5,181.3a25.3,25.3,0,0,1-.1,2.8,2.1,2.1,0,0,1-2.4,2.2,2,2,0,0,1-2.2-2.2,52.3,52.3,0,0,1,0-5.6,2,2,0,0,1,2.3-2.1,4.3,4.3,0,0,1,2.2,2,6.9,6.9,0,0,1,.2,2.9Z"/>
    <path class="cls-1" d="M96.8,24.1a2.6,2.6,0,0,1-2.7-2.5q-.1-3,0-6a2.6,2.6,0,0,1,2.7-2.5h.3a2.7,2.7,0,0,1,2.6,2.8,10.9,10.9,0,0,1,.1,1.8,2.5,2.5,0,0,0-.1.8V19h0v.4a12.1,12.1,0,0,1,0,1.9A2.7,2.7,0,0,1,97,24.1Z"/>
    <path class="cls-1" d="M99.2,18.5a26.1,26.1,0,0,1,0,2.8A2.2,2.2,0,0,1,97,23.6a2.1,2.1,0,0,1-2.4-2.1,58,58,0,0,1,0-5.9,2.1,2.1,0,0,1,2.4-2,2.2,2.2,0,0,1,2.2,2.3,22.5,22.5,0,0,1,0,2.6Z"/>
    <path class="cls-1" d="M96.8,186.8a2.5,2.5,0,0,1-2.7-2.3,28.1,28.1,0,0,1,.2-6.4,3.2,3.2,0,0,1,2.5-2.1H97a4,4,0,0,1,2.6,2.2,5.5,5.5,0,0,1,.2,2.2,2.8,2.8,0,0,0-.1.9v.9a16.1,16.1,0,0,1,0,2.2,2.6,2.6,0,0,1-2.7,2.4Z"/>
    <path class="cls-1" d="M99.2,181.3c0,1,.1,2,0,3a2.1,2.1,0,0,1-2.2,2,2,2,0,0,1-2.4-1.9,25.8,25.8,0,0,1,.2-6.2,2.6,2.6,0,0,1,2.1-1.7,3.7,3.7,0,0,1,2.2,1.9c.4.8.1,1.9.1,2.9Z"/>
    <path class="cls-1" d="M133.8,69.1c-.8,0-1.6-.5-2.8-1.6l-6.1-6.1L122.6,59l-1,.9q-1.5,1.6-3,3l-.4.5c-.5.5-1,1.1-1.6,1.2h-1.1a3.2,3.2,0,0,1-2.2-.7c-.6-.7-.9-2.6-.2-3.4,2.3-2.6,4.9-5.2,7.8-7.9a2.6,2.6,0,0,1,1.6-.7,3.8,3.8,0,0,1,2.5,1.4l8.3,8.2.5.6h.1l1.4-1.4,3.8-3.9,10.7-10.6a3.4,3.4,0,0,1,2.5-1.4,4,4,0,0,1,2.6,1.3l6.7,6.7a4.8,4.8,0,0,1,1.3,2.4,2.5,2.5,0,0,1-.9,2.2,2.5,2.5,0,0,1-1.8.8,4,4,0,0,1-2.7-1.4L153.7,53l-1.3-1.4-1.6,1.6-4,4.1L136.6,67.5C135.4,68.6,134.7,69.1,133.8,69.1Z"/>
    <path class="cls-1" d="M152.4,50.9l-6,6.1L136.2,67.2c-1.9,1.9-2.9,1.8-4.8-.1s-5.8-5.7-8.8-8.8l-4.3,4.3c-.6.5-1.2,1.4-1.8,1.5a3.7,3.7,0,0,1-2.8-.4,2.6,2.6,0,0,1-.2-2.7,83,83,0,0,1,7.8-7.9c1.2-1.1,2.4-.3,3.4.6l8.2,8.3,1.1.9,5.5-5.7,10.6-10.6c1.7-1.6,2.8-1.6,4.4,0l6.7,6.6c1.4,1.4,1.5,2.9.5,3.9s-2.4.9-3.9-.6Z"/>
  </g>
</svg>
