<svg id="Layer_1" data-name="Layer 1" xmlns="http://www.w3.org/2000/svg" width="200" height="200" viewBox="0 0 200 200">
  <defs>
    <style>
      .cls-1 {
        fill: #fff;
      }
    </style>
  </defs>
  <g>
    <path class="cls-1" d="M165.5,159.2l2.5,5.9-27.8,11.8c-17.3,7.4-34.5,14.9-51.9,22.1a9.9,9.9,0,0,1-6.8.1c-25.1-10.5-50-21.3-75-31.8-2.9-1.2-3.8-2.8-3.8-5.9q.1-60.3,0-120.6c0-4.3,1.5-6.8,5.5-8.5L81.8.9a7.7,7.7,0,0,1,5.6,0c24.7,10.4,49.3,21.1,74,31.6,3.7,1.6,5.3,3.8,5.2,7.8-.1,10,0,20,0,30.3h-6.3V41.7l-17.6,7.5-51.5,22c-2.5,1.1-3.8,2.3-3.8,5.4q.1,55.8.1,111.8c0,1,.2,2.1.3,4ZM81.2,192.1V186c0-33.9-.3-67.8.2-101.6.2-8.8-1.8-14-10.7-16.3-4.9-1.3-9.5-3.9-14.9-6.2V95.5C46.5,91.6,38,87.8,29.3,84.4c-3-1.2-3.8-2.9-3.7-5.9.1-8.7.1-17.3,0-26-.1-1.4-.5-3.5-1.4-4-4.7-2.3-9.7-4.3-14.7-6.4a13.5,13.5,0,0,0-.3,2c-.1,38,0,76.1-.1,114.1,0,2.7,1.1,3.7,3.4,4.7l50.6,21.5Zm74-155.2c-7.2-3.1-13.4-6.1-19.8-8.5a10.9,10.9,0,0,0-6.9.1C107.6,37.2,86.8,46.2,66,55.1a44.5,44.5,0,0,0-4.4,2.2c7.5,3.3,14.1,6.2,20.8,8.9a7.9,7.9,0,0,0,4.8-.2c6.4-2.6,12.7-5.4,19.1-8.1C122.3,51,138.2,44.1,155.2,36.9ZM14,36.9c4.4,1.9,8,3.3,11.4,5s5.9,1.6,9.1.1C47.6,36.2,60.8,30.7,74,25l26.7-11.5c-4.5-1.9-8-3.3-11.4-5a9.5,9.5,0,0,0-9.1-.1C63.2,15.9,46,23.2,28.8,30.5ZM38.3,47.2c3.6,1.7,6.3,2.7,8.8,4.1,4,2.2,7.6,1.9,11.8.1,20-8.9,40.2-17.4,60.3-26a28.1,28.1,0,0,0,3.8-2c-8.2-4.9-15.3-6.8-24.7-2.2C79.1,30.6,59.1,38.3,38.3,47.2ZM32,51.7c0,8.9-.1,16.9,0,24.9a3,3,0,0,0,1.2,2.2c5.2,2.4,10.5,4.6,16.3,7.1,0-8.8.1-16.7-.1-24.6a4.4,4.4,0,0,0-2-3C42.7,56.1,37.8,54.2,32,51.7Z"/>
    <path class="cls-1" d="M146.9,135.6l-30,12.7c-5.7,2.4-11.2,5.1-17.1,7-2.2.7-5.8.3-7.3-1.1s-1.2-5.2-.3-7.1c6.9-13.3,14.2-26.4,21.4-39.5,2.7-4.8,6.7-5,10.5-.8l7.6,8.6c2.8-4.7,5.2-9,7.8-13.1s7-5.1,10.8-.8c2,2.2,3.8,4.4,6.1,7.1,1-1.9,1.7-3.3,2.4-4.8l17.6-38.7c3-6.6,6.7-7.7,14.4-4.2s8,6.8,5.2,13c-8.4,18.9-16.9,37.8-25.5,56.5a50.8,50.8,0,0,1-16,19.6c-4.3,3.1-6.3,2.3-6.9-3C147.1,143.4,147.1,139.7,146.9,135.6ZM99.2,147.7l.6.8c13.1-5.6,26.1-11.6,39.5-16.6,7.2-2.6,11.7-6.7,13.2-14.1a.5.5,0,0,0,.2-.4c-.1-1.1.2-2.5-.4-3.3-2.1-2.8-4.5-5.4-7.1-8.5l-7.6,12.7c-3.2,5.2-7.1,5.6-11.1,1.1l-7.4-8.3Zm53.7-6.8,2.3,1c3.3-5,7.1-9.7,9.6-15,8.5-17.9,16.5-36.2,24.9-54.2,1.5-3.3,1.1-4.9-2.2-6.4s-4.9-.4-5.9,2.6-1.2,2.8-1.7,4.3c-7.5,19.7-19.9,37.5-24.3,58.5C155,134.8,153.8,137.8,152.9,140.9Z"/>
    <path class="cls-1" d="M141.1,79.7c0,7.5-6.2,14.4-12.9,14.4s-10.3-4.9-10.3-11.9,5.9-13.9,12.6-14S141.1,73,141.1,79.7Zm-16.7,4.6c.8.7,2.2,2.8,4.1,3.2s6.4-4.2,6.2-7.9-1.1-4.9-4.2-5S124.3,78.7,124.4,84.3Z"/>
    <path class="cls-1" d="M127,155l2.6,5.7-5.6,2.6c-1-1.9-1.8-3.6-2.7-5.6Z"/>
    <path class="cls-1" d="M117.4,165.9l-5.8,2.7-2.6-5.9,5.8-2.4Z"/>
    <path class="cls-1" d="M139.1,149.5l2.6,5.7-5.8,2.7-2.6-5.7Z"/>
  </g>
</svg>
