<svg id="Layer_1" data-name="Layer 1" xmlns="http://www.w3.org/2000/svg" width="200" height="200" viewBox="0 0 200 200">
  <defs>
    <style>
      .cls-1 {
        fill: #fff;
      }
    </style>
  </defs>
  <g>
    <path class="cls-1" d="M105.6,64.9l1,1.3L131.3,104l14.9,22.6a8.2,8.2,0,0,1,1.1,6.8c-3.8,14.7-7.5,29.4-11.2,44.1l-.3,1.5h6.8c3.3.2,5.2,2,5.2,4.9s-2,4.5-5.2,4.6H59.5a9.4,9.4,0,0,1-3.4-.7c-2.3-.9-3.1-2.4-2.8-4.5a4.4,4.4,0,0,1,4.2-4.2h7.8c-.7-2.8-1.3-5.4-2-8.1-3.1-12.5-6.3-25-9.5-37.5a8,8,0,0,1,1.2-6.7L91.1,71.3,95.3,65h.4c0,.8.2,1.6.2,2.4v61.5c0,4.9-.1,9.8,0,14.7a3.5,3.5,0,0,1-2.2,3.7,14,14,0,0,0-5.4,19.4,14.2,14.2,0,0,0,20,4.7,13.9,13.9,0,0,0,3.8-19.8,19.7,19.7,0,0,0-4.8-4.3,4,4,0,0,1-2.2-3.7c.1-14.6.1-29.2.1-43.9V66.5c0-.5.1-1,.1-1.5Z"/>
    <path class="cls-1" d="M47.7,37.2h-10c-2.2,0-4.4.2-6.5.1a2.8,2.8,0,0,0-3,1.8,14.9,14.9,0,0,1-5.6,5.8c-4.8,2.5-9.6,2.6-14.2-.3a13.6,13.6,0,0,1-7-12.5c.2-6.2,4.5-11.8,10.3-13.2s12.7.6,16,6.5a4.4,4.4,0,0,0,4.2,2.4H76.8V14.5c.1-3.9,1.9-5.7,5.8-5.7H119c3.4.2,5.1,1.9,5.2,5.3V24.6c0,3.1,0,3.1,3.1,3.1h39.8a9.7,9.7,0,0,1,1.7,0c2.4.3,3.9-.5,5.1-2.8a13.8,13.8,0,0,1,17.2-5.7,14.4,14.4,0,0,1,8.6,16.2,14.1,14.1,0,0,1-14.5,11.2,13.6,13.6,0,0,1-11.7-7.3,3.8,3.8,0,0,0-3.8-2.2l-14.6.3h-1.8l1.6,1.1c13.9,8.6,25.3,19.6,32.9,34.2a90,90,0,0,1,10.4,40.6,8.2,8.2,0,0,1-.8,3.5,4.4,4.4,0,0,1-7.9-.1,9,9,0,0,1-.7-3.7,78.6,78.6,0,0,0-7.5-32C170,58.1,151.8,43.5,126.6,37.7l-2.3-.4a8.6,8.6,0,0,0-.1,1.5V50.1a7.5,7.5,0,0,1-.2,2.1c-.4,2.3-1.7,3.7-4.1,3.8s-5.3.2-7.9.2H82.1c-3.6-.2-5.2-1.7-5.2-5.3s-.1-7.9-.1-11.9V37.2l-6.4,1.4C61,41,52.5,45.6,44.6,51.2,27.9,63,18,79.2,14,99.1c-.9,4.5-1.1,9.2-1.6,13.8-.2,1-.2,2.2-.5,3.2a4.4,4.4,0,0,1-4.8,3.3A4.3,4.3,0,0,1,3,115.2a67.1,67.1,0,0,1,.3-9c1.9-20.3,10.1-37.8,24-52.6A85.9,85.9,0,0,1,45.9,38.8l2-1.2Z"/>
    <path class="cls-1" d="M100.6,155.4c3,0,4.6,1.4,4.6,4.1a4.7,4.7,0,1,1-9.4,0C95.9,156.8,97.5,155.4,100.6,155.4Z"/>
  </g>
</svg>
