<svg id="Layer_1" data-name="Layer 1" xmlns="http://www.w3.org/2000/svg" width="200" height="200" viewBox="0 0 200 200">
  <defs>
    <style>
      .cls-1 {
        fill: #fff;
      }
    </style>
  </defs>
  <g>
    <path class="cls-1" d="M24.2,200c-4.7-1.6-6.6-4.9-6.3-9.7.2-2.9.1-5.8.1-8.6,0-5.5,2.3-8.2,7.7-9.1V27.6c-6-1.5-7.7-3.8-7.7-9.9,0-3.2-.1-6.4,0-9.6A7.7,7.7,0,0,1,26.1,0H173.9A7.7,7.7,0,0,1,182,8.1c.1,3.2,0,6.3,0,9.4,0,6.3-1.7,8.6-7.7,10.1V172.3a22.5,22.5,0,0,1,4.5,1.9,7,7,0,0,1,3.2,6.3c.1,3.2-.1,6.5.1,9.8s-1.6,8.1-6.3,9.7ZM33.7,27.4V172.5H166.3V27.4ZM174.2,8H25.9V19.4H174.2ZM174,192.1V180.6H25.9v11.5Z"/>
    <path class="cls-1" d="M99.9,43h45.9c5.8,0,8.9,3,8.9,8.9v56.4c0,5.8-3.1,8.9-8.9,8.9H54.2c-5.8,0-8.9-3.1-8.9-8.9V51.9c0-5.9,3.1-8.9,8.9-8.9Zm17.5,48.5,1.4,1.5,1.5,1.5a4,4,0,0,1-.2,5.3,3.8,3.8,0,0,1-5.4.2l-1.3-1.2L84.8,70.2l-1.5-1.4-.6.4L54,97.9c-.3.4-.8.8-.8,1.1v10.2h93.6c0-4.3.1-8.4,0-12.4a4.1,4.1,0,0,0-1.1-2.7L131.5,79.8l-1.2-1.1Zm-5.9-5.7,1.5-1.4L126.4,71c2.8-2.8,4.6-2.8,7.5,0l11.7,11.8,1.2.9V50.9H53.3V87.2l.4.2c.5-.5.8-1.2,1.3-1.7L79.6,61.2c2.7-2.7,4.6-2.8,7.3-.1,5.7,5.7,11.3,11.4,17,17Z"/>
    <path class="cls-1" d="M100,133.6h43.5a4,4,0,0,1,3.4,4,4,4,0,0,1-3.4,3.7H57.3c-2.5-.1-4.2-1.7-4.2-4a4,4,0,0,1,4.1-3.8H100Z"/>
    <path class="cls-1" d="M99.8,157H56.5a4,4,0,0,1-3.4-4,4,4,0,0,1,3.4-3.7h86.8a4,4,0,0,1,3.6,3.7,4,4,0,0,1-3.6,4H99.8Z"/>
  </g>
</svg>
