<svg id="Layer_1" data-name="Layer 1" xmlns="http://www.w3.org/2000/svg" width="200" height="200" viewBox="0 0 200 200">
  <defs>
    <style>
      .cls-1 {
        fill: #fff;
      }
    </style>
  </defs>
  <g>
    <path class="cls-1" d="M133.9,9.2A66.1,66.1,0,0,0,100,18.6,69,69,0,0,0,91.1,25,66.5,66.5,0,0,0,68.3,66.4a65.8,65.8,0,0,0-.6,9,28.1,28.1,0,0,0,.1,2.9,65.8,65.8,0,0,0,23.3,47.5,69,69,0,0,0,8.9,6.4,66.5,66.5,0,0,0,54.3,6.1,61.8,61.8,0,0,0,10.9-4.7A66.2,66.2,0,0,0,133.9,9.2Zm31.8,112.5a49.4,49.4,0,0,1-9.8,5.5,55.8,55.8,0,0,1-22,4.5,55.1,55.1,0,0,1-25-5.9,57.5,57.5,0,0,1-8.9-5.5A56.3,56.3,0,0,1,77.6,75.4V72.8a58.3,58.3,0,0,1,1.7-11.1A55.6,55.6,0,0,1,100,30.5a50.8,50.8,0,0,1,8.9-5.5,55.1,55.1,0,0,1,25-5.9,56.2,56.2,0,0,1,31.8,102.6Z"/>
    <path class="cls-1" d="M131.7,66.8A66,66,0,0,0,108.9,25a62.8,62.8,0,0,0-8.9-6.4A66.1,66.1,0,1,0,34.1,133.2,62.7,62.7,0,0,0,45,138.1a67.6,67.6,0,0,0,21.1,3.4,66,66,0,0,0,33.9-9.3,62.8,62.8,0,0,0,8.9-6.4,66.1,66.1,0,0,0,23.3-47.1c.1-1.1.1-2.2.1-3.3A61.1,61.1,0,0,0,131.7,66.8Zm-9.3,8.6A56.3,56.3,0,0,1,100,120.3a57.5,57.5,0,0,1-8.9,5.5,55.8,55.8,0,0,1-47.6,1.1,60.1,60.1,0,0,1-9.9-5.6A56.3,56.3,0,0,1,66.1,19.1a55.1,55.1,0,0,1,25,5.9,50.8,50.8,0,0,1,8.9,5.5,56.3,56.3,0,0,1,20.8,31.4,59.3,59.3,0,0,1,1.6,11.2Z"/>
    <path class="cls-1" d="M165.7,121.7a66.1,66.1,0,0,0-34-54.9,59.5,59.5,0,0,0-10.9-4.9,59.3,59.3,0,0,1,1.6,11.2,63.5,63.5,0,0,1,9.8,5.6A56.2,56.2,0,0,1,156,124.6c0,.9-.1,1.7-.1,2.6a58.2,58.2,0,0,1-1.6,11.1A56.3,56.3,0,0,1,45,138.1a59.2,59.2,0,0,1-1.5-11.2,17.7,17.7,0,0,1-.1-2.3A57.1,57.1,0,0,1,77.6,72.8a58.3,58.3,0,0,1,1.7-11.1,62.8,62.8,0,0,0-11,4.7,66.5,66.5,0,0,0-34.7,54.9c0,1.1-.1,2.2-.1,3.3a61.1,61.1,0,0,0,.6,8.6,66.1,66.1,0,0,0,131.7-8.6A28.1,28.1,0,0,0,165.7,121.7Z"/>
  </g>
</svg>
