<svg id="Layer_1" data-name="Layer 1" xmlns="http://www.w3.org/2000/svg" width="200" height="200" viewBox="0 0 200 200">
  <defs>
    <style>
      .cls-1 {
        fill: #fff;
      }
    </style>
  </defs>
  <g>
    <path class="cls-1" d="M2.1,22l.3-.7C4.2,13.5,9.9,8.7,18,8.4c3.1-.2,6.1-.1,9.2,0s3.2,1,3.2,2.8-1,2.8-3.2,2.9H18.9C12,14.1,7.8,18.3,7.8,25.2v88.5h2.3c49.4,0,98.8-.1,148.2,0,1.9,0,2.5-.4,2.4-2.4-.1-4,0-8,0-12.2H110.2c-4.1,0-4.7-.7-4.7-4.8V50.1c0-3.6.7-4.4,4.3-4.4h57c3.4,0,4.2.9,4.2,4.2,0,13.4.1,26.9,0,40.3a2.9,2.9,0,0,0,1.4,2.7l9.8,7.2,1.9,1.3V25.6c0-7.4-4.1-11.5-11.6-11.5H43.4a2.4,2.4,0,0,1-2.3-2.6,2.4,2.4,0,0,1,2.1-2.9,6.5,6.5,0,0,1,2-.2H172.6c10.5,0,17.2,6.8,17.2,17.2v77.9c0,1.7.3,2.8,1.8,3.8a36.5,36.5,0,0,1,4.5,3.2,4.2,4.2,0,0,1,1.6,4.8,4.1,4.1,0,0,1-4,3h-3.9v2.3c-.1,5.7.2,11.4-.3,17a15.2,15.2,0,0,1-14.7,13.4c-9.9.2-19.9.1-29.8.1H115.5v21.3h15.4c4.8.1,8,2.9,9,7.6s-1,9.2-4.9,10.7a21,21,0,0,1-6.6.9c-1.7,0-2.6-1.3-2.4-3a2.4,2.4,0,0,1,2.7-2.6h2.1c2.4-.2,3.8-1.6,3.7-3.9s-1.4-3.7-3.9-3.8H62c-3.3,0-5.1,1.7-4.6,4.5a3.3,3.3,0,0,0,3.1,3.1l2.3.2H111c2.5,0,3.5.8,3.6,2.7a2.6,2.6,0,0,1-2.4,2.9H61.9c-7.4,0-11.7-5.7-9.7-12.7,1.2-4.1,4.4-6.5,9-6.6H76.8V151H74.5c-17.7,0-35.3-.2-53,.1-10,.2-17.1-3.9-19.4-13.6Zm5.7,97.5v14.2c0,7.6,4,11.6,11.6,11.6H172.7c7.3,0,11.4-4.2,11.4-11.4V118.4a32.6,32.6,0,0,1-4.5-.1,2.8,2.8,0,0,0-2.9,1.5c-2.4,3.5-4.9,6.8-7.3,10.2s-3.4,3.4-5.6,2.6-3-2.1-3-5.3v-7.8ZM111.3,93.2h49.2c.1-3,1.7-4.7,4.7-5V51.5H111.3Zm-1.8,57.9H82.9v21.2h26.6Zm79-38.6V112l-22-16.3v28.1c2.2-3,4.3-5.6,6.1-8.4a6.4,6.4,0,0,1,5.9-3C181.9,112.6,185.2,112.5,188.5,112.5Z"/>
    <path class="cls-1" d="M95,29.9h72.5c2.2,0,3.5,1.1,3.5,2.9s-1.3,2.7-3.4,2.8H21.5a2.6,2.6,0,0,1-2.2-3,2.4,2.4,0,0,1,2.5-2.6H95Z"/>
    <path class="cls-1" d="M57.5,77.4h35a4.5,4.5,0,0,1,3.2,1.4c1.4,1.7,0,4.1-2.2,4.3H22.8c-2.3,0-3.3-.7-3.5-2.4s.9-3.3,3.3-3.3H57.5Z"/>
    <path class="cls-1" d="M57.5,45.7H93.8a2.5,2.5,0,0,1,2.4,2.9,2.6,2.6,0,0,1-2.5,2.7,5.7,5.7,0,0,1-1.3,0c-23.1,0-46.3.1-69.4,0a5.6,5.6,0,0,1-2.2-.3c-1.4-.5-1.7-1.8-1.5-3.1s1.5-2.3,3.1-2.3H57.5Z"/>
    <path class="cls-1" d="M57.7,93.3h35c2.4,0,3.5.9,3.5,2.8A2.6,2.6,0,0,1,93.9,99H23.8a10.1,10.1,0,0,1-2.5-.2,2.3,2.3,0,0,1-2-2.8,2.4,2.4,0,0,1,2.1-2.7H57.7Z"/>
    <path class="cls-1" d="M57.5,67.3H22.9c-2.6,0-3.8-1-3.6-3.2a2.4,2.4,0,0,1,2.2-2.4H91.8c3.2,0,4.4.8,4.4,2.9s-1.2,2.8-4.5,2.8Z"/>
    <path class="cls-1" d="M141.2,72.3V64.9c.1-2.2,1.1-3.2,3.2-3.2a46.8,46.8,0,0,1,5.3,0,10.7,10.7,0,0,1,.2,21.4,54.2,54.2,0,0,1-5.7,0c-1.9,0-2.9-1.1-3-3Zm5.9,5c2.6.3,4.9.2,6.5-2.2a4.7,4.7,0,0,0-.1-5.4c-1.5-2.4-3.9-2.5-6.4-2.2Z"/>
    <path class="cls-1" d="M119.7,83.1c-2.4,0-3.9-2-3-4q3.5-7.8,7.2-15.6a2.7,2.7,0,0,1,5.1.1c2.5,5.1,4.8,10.2,7.2,15.4a2.8,2.8,0,0,1-1.1,3.7c-1.5.9-2.8.4-3.9-.9a2.7,2.7,0,0,0-1.7-.8h-4.6c-1.4,0-2.9-.4-3.8,1.4S120,82.9,119.7,83.1Zm6.7-11.5-1.6,3.5h3.3C127.5,74,127.1,73.1,126.4,71.6Z"/>
  </g>
</svg>
