<svg id="Layer_1" data-name="Layer 1" xmlns="http://www.w3.org/2000/svg" width="200" height="200" viewBox="0 0 200 200">
  <defs>
    <style>
      .cls-1 {
        fill: #fff;
      }
    </style>
  </defs>
  <g>
    <path class="cls-1" d="M0,39.4a7.6,7.6,0,0,1,4.3-3.1L65.4,16.2a8.1,8.1,0,0,1,5.1,0l59.2,19.6a6.9,6.9,0,0,0,4.7-.1l59.3-19.5c4.2-1.4,6.3.2,6.3,4.7V40c-.1,2.7-1.6,4.5-3.9,4.5s-3.9-1.8-3.9-4.5V24.9L136,43.4V175l56.2-18.5V76.6c0-3.5,1.3-5.4,3.9-5.5S200,73,200,76.5V158c0,3.4-.7,4.4-3.8,5.4l-61.9,20.3a8.4,8.4,0,0,1-4.7,0c-19.8-6.4-39.5-13-59.2-19.5a7.2,7.2,0,0,0-4.8,0L6.4,183.7c-3.3,1.1-4.4.7-6.4-2.1ZM64,156.5V24.9L7.9,43.4V175Zm7.9,0L128.1,175V43.4L71.9,24.9Z"/>
    <path class="cls-1" d="M143.7,76.3c0-5.8,0-11.7.1-17.5,0-3,.7-4.1,3.5-5.1l31.1-10.2c3.7-1.2,6,.5,6,4.4V83.2c0,3.1-.8,4.1-3.8,5.1L150.1,98.4c-4.2,1.4-6.3-.2-6.3-4.5C143.7,88,143.7,82.2,143.7,76.3Zm32.9-24-24.1,8a2.3,2.3,0,0,0-.9,1.8c-.1,5.7,0,11.4,0,17.2V89.4h.7l23.3-7.7a1.8,1.8,0,0,0,.9-1.3C176.6,71.1,176.6,61.9,176.6,52.3Z"/>
    <path class="cls-1" d="M184.3,104.5c-.2,2.1-1.5,3.2-3.5,3.8l-25.7,8.5-5.7,1.9c-2.6.8-4.7-.2-5.4-2.4s.4-4.2,3-5l22.4-7.4c3.3-1.1,6.5-2.3,9.8-3.2A3.8,3.8,0,0,1,184.3,104.5Z"/>
    <path class="cls-1" d="M148.1,155.1a3.7,3.7,0,0,1-4.1-2.7,3.6,3.6,0,0,1,1.7-4.3,7.2,7.2,0,0,1,2-.9l30.3-10a8,8,0,0,1,2.6-.5,3.7,3.7,0,0,1,3.6,2.8,3.5,3.5,0,0,1-1.5,4.1,8.8,8.8,0,0,1-2.2,1l-30.5,10A10.8,10.8,0,0,1,148.1,155.1Z"/>
    <path class="cls-1" d="M180,118.6a4,4,0,0,1,4.2,2.8,3.5,3.5,0,0,1-1.9,4.3,36.3,36.3,0,0,1-5.8,2.1L150,136.6a9.3,9.3,0,0,1-2.4.5,3.6,3.6,0,0,1-3.6-2.8,3.4,3.4,0,0,1,1.5-4.2,5.6,5.6,0,0,1,2.1-.9L178,119.1Z"/>
    <path class="cls-1" d="M200,57.8a4.1,4.1,0,0,1-3.9,3.8,4,4,0,0,1-3.9-3.9,3.9,3.9,0,0,1,3.9-3.8A4,4,0,0,1,200,57.8Z"/>
    <path class="cls-1" d="M15.6,76.3V58.8c0-3,.8-4.1,3.6-5.1L50.3,43.5c3.7-1.2,5.9.5,5.9,4.4.1,11.8.1,23.6,0,35.3,0,3.1-.7,4.1-3.7,5.1L22,98.4c-4.2,1.4-6.4-.2-6.4-4.5ZM48.4,52.4,23.6,60.5V89.6l24.8-8.1Z"/>
    <path class="cls-1" d="M19.7,119.1c-1.9-.2-3.3-1-3.8-2.8a3.7,3.7,0,0,1,1.4-4.3,7.2,7.2,0,0,1,2-.9L50.2,101a6,6,0,0,1,2.6-.5,3.6,3.6,0,0,1,3.3,3.1,3.6,3.6,0,0,1-1.8,4c-1.3.6-2.7,1-4,1.5L22,118.4Z"/>
    <path class="cls-1" d="M19.9,137.1a4,4,0,0,1-4.1-2.8,3.8,3.8,0,0,1,1.8-4.4,9.2,9.2,0,0,1,2.3-.9l29.8-9.8,2.7-.6a3.8,3.8,0,0,1,1.9,7.1l-1.7.8L21.7,136.6A10.2,10.2,0,0,1,19.9,137.1Z"/>
    <path class="cls-1" d="M56.2,140.7a3.8,3.8,0,0,1-2.7,3.5c-5.4,1.8-10.9,3.7-16.4,5.4a3.7,3.7,0,0,1-4.8-2.5,3.6,3.6,0,0,1,2.4-4.8c5.5-1.9,11-3.8,16.5-5.5A3.9,3.9,0,0,1,56.2,140.7Z"/>
    <path class="cls-1" d="M19.6,155.1a3.7,3.7,0,0,1-3.9-3.7,3.8,3.8,0,0,1,3.8-3.9,3.9,3.9,0,0,1,3.9,3.8A3.8,3.8,0,0,1,19.6,155.1Z"/>
    <path class="cls-1" d="M120.3,132.8c0,5.9.1,11.8,0,17.7,0,3.8-2.2,5.4-5.9,4.2L83.1,144.5c-2.5-.9-3.4-2.1-3.4-4.8V104c0-3.8,2.4-5.5,6-4.3L116.8,110c2.8.9,3.5,2,3.5,5Zm-7.8-16-25-8.2c0,9.5,0,18.8.1,28.1,0,.5.8,1.2,1.4,1.4l22,7.3,1.5.3Z"/>
    <path class="cls-1" d="M84,61.2a9.7,9.7,0,0,1,2,.5l30.7,10.1,1.1.4a4,4,0,0,1,2.3,5,3.9,3.9,0,0,1-5,2.3L105,76.2,83.7,69.1A7.6,7.6,0,0,1,81.3,68,3.5,3.5,0,0,1,80,63.8,3.8,3.8,0,0,1,84,61.2Z"/>
    <path class="cls-1" d="M116,97.7l-2-.5-30.5-10a8.4,8.4,0,0,1-1.9-.9A3.5,3.5,0,0,1,80,82.1a3.6,3.6,0,0,1,3.7-2.8,5.9,5.9,0,0,1,2.3.5l30.5,10a12.1,12.1,0,0,1,2,.9,3.8,3.8,0,0,1,1.7,4.4A4,4,0,0,1,116,97.7Z"/>
    <path class="cls-1" d="M83.9,43.1l2.1.5,30.5,10,1.5.6a3.8,3.8,0,0,1,2.1,4.8,3.7,3.7,0,0,1-4.7,2.4c-4.7-1.4-9.3-3-13.9-4.5l-18.2-6c-1.5-.5-2.8-1.2-3.3-2.9A3.9,3.9,0,0,1,83.9,43.1Z"/>
  </g>
</svg>
