<svg class="svg-hover" style="fill: #ffffff;" xmlns="http://www.w3.org/2000/svg" width="50%" height="100" viewBox="0 0 200 200">
  <path d="M0,72.9V60.4a24.5,24.5,0,0,0,.8-2.9C4.7,33,18,15.5,40.6,5.6,46.9,2.9,53.8,1.8,60.4,0H72c10,1.7,19.9,4,28.7,9.4a2.9,2.9,0,0,0,2.7-.2C110.9,4.1,119.3,1.7,128,0h11.6a10.1,10.1,0,0,0,1.5.7c39.5,6.6,58.1,49,36.1,82.6-1.5,2.2-1.3,3.8-.2,6,7.7,14.9,15.3,29.9,23,44.9v5.4c-5.5,7.8-11,15.5-16.4,23.3,7.8,2.5,9.5,4.8,9.5,13.3.1,3.7-.2,7.5.1,11.1.5,6.1-1.9,10.3-7.4,12.7H134.2c-5.6-2.4-7.9-6.6-7.4-12.7.2-3.6,0-7.4,0-11,0-8.5,1.8-11,10.1-13.5-4.1-5.2-7.8-10.5-12-15.4s-6.1-12.6-1.9-19.9,7.1-13.5,10.7-20.5a63.7,63.7,0,0,1-7.5-1.1c-3.7-.9-6,.2-8.5,3.3C85.9,148,23.6,138.2,5,91.6,2.7,85.6,1.7,79.1,0,72.9ZM101.9,96.8q-35-30.6-14.3-71.6C67.2,13.8,39.9,21.4,27,42.1A46.7,46.7,0,0,0,40.2,105C59.9,118.5,88.2,114.7,101.9,96.8Zm54.8-18.4c-.9.8-1.2,1-1.3,1.2l-27.8,53.5c-1.5,3-1,5.7,1,8.3,5.1,6.5,10,13.2,15.3,19.6a8.1,8.1,0,0,0,5.1,2.4c7.3.2,14.5.3,21.8-.1a8.6,8.6,0,0,0,5.7-2.9c5-5.9,9.4-12.2,14.2-18.2,2.9-3.4,3.1-6.6,1-10.5-5.5-10.3-10.7-20.7-16.1-31.1-3.8-7.2-7.6-14.5-11.3-21.8a7.3,7.3,0,0,0-1,4.1c0,11.1.1,22.2-.1,33.3,0,2.7.5,4.4,3.3,5.8a12.6,12.6,0,0,1,6.6,13.4,13.5,13.5,0,0,1-12.5,11.3,13.3,13.3,0,0,1-13.3-9.7c-1.8-6.2.8-12,6.6-15.5,1.2-.6,2.6-2.1,2.7-3.3C156.7,105.2,156.7,92.2,156.7,78.4Zm-48.4,22c-21.9,24.5-52.9,24-73.1,9.3A53.2,53.2,0,0,1,82.3,15.9a51.4,51.4,0,0,1,29.1,22c8.8,13.9,10.7,28.9,6.1,44.8l5.8,2.5c9.2-22.9.2-58.2-31.4-72.9A60,60,0,0,0,40.4,120.7c29.7,14.3,61.7.8,73.3-17.8Zm56.1-35.7c5.6-13.9.4-30-11.8-38.8-10.5-7.5-27.3-7.8-34.4-1.4A67.1,67.1,0,0,1,132,53.9c2.3,10.9,1.3,21.6-1.6,32.3,9.7,1.6,14.4-.6,18.5-8.4,1.5-3.1,3.1-6.1,4.7-9.1C156.5,63.1,158.3,62.4,164.4,64.7Zm-4.5,105.2H138.1c-3.3-.1-4.9,1.4-4.8,4.8s.1,9.2,0,13.7,1.6,5.1,5.1,5.1h43.5c3.2,0,4.9-1.4,4.8-4.8s-.1-9.2,0-13.8-1.6-5.1-5.1-5Zm12.2-91c13-17.9,9.7-44.5-7.3-60s-42.2-16.6-56.3-4.5c2.4,3.9,5,4.1,9.4,2.3,15.9-6.5,30.5-3.7,43.1,7.9a38.7,38.7,0,0,1,9.4,42.9C168.5,72.1,169.2,75.3,172.1,78.9ZM140.6,92.8c-32.8,5-58.7-27.9-41.9-60L94.1,29c-5,6.1-8.3,18-7.5,26.5,2.2,25,18.8,41.8,43.8,44.4C137.3,100.6,138,100.2,140.6,92.8ZM111.7,78.1c4-12.8.1-31.3-8.2-39.2C96.6,51.5,100.3,70,111.7,78.1ZM160,126.6a6.7,6.7,0,1,0,6.7,6.8A6.9,6.9,0,0,0,160,126.6Z"/>
</svg>