<svg id="Layer_1" data-name="Layer 1" xmlns="http://www.w3.org/2000/svg" xmlns:xlink="http://www.w3.org/1999/xlink" viewBox="0 0 1005.24 136.88"><defs><style>.cls-1{fill:url(#Degradado_sin_nombre_8);}.cls-2{fill:url(#Degradado_sin_nombre_8-2);}.cls-3{fill:url(#Degradado_sin_nombre_8-3);}.cls-4{fill:url(#Degradado_sin_nombre_8-4);}.cls-5{fill:url(#Degradado_sin_nombre_8-5);}.cls-6{fill:url(#Degradado_sin_nombre_8-6);}.cls-7{fill:url(#Degradado_sin_nombre_8-7);}</style><linearGradient id="Degradado_sin_nombre_8" x1="1.97" y1="69.17" x2="1026.91" y2="56.46" gradientUnits="userSpaceOnUse"><stop offset="0" stop-color="#723d26"/><stop offset="0.45" stop-color="#c68960"/><stop offset="0.56" stop-color="#bb7f58"/><stop offset="0.76" stop-color="#9c6343"/><stop offset="1" stop-color="#723d26"/></linearGradient><linearGradient id="Degradado_sin_nombre_8-2" x1="2" y1="71.47" x2="1026.94" y2="58.76" xlink:href="#Degradado_sin_nombre_8"/><linearGradient id="Degradado_sin_nombre_8-3" x1="2.04" y1="74.66" x2="1026.98" y2="61.95" xlink:href="#Degradado_sin_nombre_8"/><linearGradient id="Degradado_sin_nombre_8-4" x1="2.05" y1="75.46" x2="1026.99" y2="62.76" xlink:href="#Degradado_sin_nombre_8"/><linearGradient id="Degradado_sin_nombre_8-5" x1="2.07" y1="77.1" x2="1027.01" y2="64.4" xlink:href="#Degradado_sin_nombre_8"/><linearGradient id="Degradado_sin_nombre_8-6" x1="2.09" y1="78.59" x2="1027.03" y2="65.89" xlink:href="#Degradado_sin_nombre_8"/><linearGradient id="Degradado_sin_nombre_8-7" x1="2.11" y1="79.79" x2="1027.05" y2="67.08" xlink:href="#Degradado_sin_nombre_8"/></defs><path class="cls-1" d="M121,2.27V134.61H107.77V22.31L61.45,99.83H59.56L13.23,22.31v112.3H0V2.27H16.24L60.5,76.35,104.76,2.27Z"/><path class="cls-2" d="M294.75,116.94q-19.86,19.94-48.59,19.94t-48.59-19.94Q177.71,97,177.72,68.44T197.57,20Q217.42,0,246.16,0t48.59,20q19.85,20,19.85,48.49T294.75,116.94Zm-87.92-9.08Q222.71,124,246.16,124t39.32-16.17q15.88-16.17,15.88-39.42T285.48,29q-15.87-16.17-39.32-16.16T206.83,29Q190.95,45.19,191,68.44T206.83,107.86Z"/><path class="cls-3" d="M396.46,136.88a51.77,51.77,0,0,1-24.67-5.77,33.39,33.39,0,0,1-15.6-16.92l11.16-6.61Q373.59,124,396.46,124q13.8,0,22-6.62t8.22-20.23V2.27H440V97.18q0,19.27-12.39,29.49T396.46,136.88Z"/><path class="cls-4" d="M586.66,134.61l-12.27-32.52H511.58l-12.27,32.52h-14L536.18,2.27H549.8l50.85,132.34Zm-70.37-45h53.4L543,18.86Z"/><path class="cls-5" d="M736.77,2.27H750V134.61H736.77V72.79H664.93v61.82H651.7V2.27h13.23v58h71.84Z"/><path class="cls-6" d="M814.29,2.27h13.23V134.61H814.29Z"/><path class="cls-7" d="M942.85,2.27q27,0,44.71,19.19t17.68,47q0,27.8-17.68,47t-44.71,19.19H891.8V2.27Zm0,119.87q21.74,0,35.64-15.51t13.89-38.19q0-22.68-13.89-38.19t-35.64-15.5H905V122.14Z"/></svg>