<svg xmlns="http://www.w3.org/2000/svg" xmlns:xlink="http://www.w3.org/1999/xlink" viewBox="0 0 1920 890"><defs><style>.cls-1{isolation:isolate;}.cls-10,.cls-11,.cls-12,.cls-13,.cls-14,.cls-15,.cls-16,.cls-17,.cls-18,.cls-19,.cls-2,.cls-20,.cls-21,.cls-22,.cls-23,.cls-24,.cls-25,.cls-26,.cls-27,.cls-28,.cls-29,.cls-3,.cls-30,.cls-31,.cls-32,.cls-33,.cls-34,.cls-35,.cls-36,.cls-37,.cls-38,.cls-39,.cls-4,.cls-40,.cls-41,.cls-42,.cls-43,.cls-44,.cls-45,.cls-46,.cls-47,.cls-48,.cls-49,.cls-5,.cls-50,.cls-51,.cls-52,.cls-53,.cls-54,.cls-55,.cls-56,.cls-57,.cls-58,.cls-59,.cls-6,.cls-60,.cls-61,.cls-62,.cls-63,.cls-64,.cls-65,.cls-66,.cls-67,.cls-68,.cls-69,.cls-7,.cls-8,.cls-9{mix-blend-mode:screen;}.cls-2{fill:url(#linear-gradient);}.cls-3{fill:url(#linear-gradient-2);}.cls-4{fill:url(#linear-gradient-3);}.cls-5{fill:url(#linear-gradient-4);}.cls-6{fill:url(#linear-gradient-5);}.cls-7{fill:url(#linear-gradient-6);}.cls-8{fill:url(#linear-gradient-7);}.cls-9{fill:url(#linear-gradient-8);}.cls-10{fill:url(#linear-gradient-9);}.cls-11{fill:url(#linear-gradient-10);}.cls-12{fill:url(#linear-gradient-11);}.cls-13{fill:url(#linear-gradient-12);}.cls-14{fill:url(#linear-gradient-13);}.cls-15{fill:url(#linear-gradient-14);}.cls-16{fill:url(#linear-gradient-15);}.cls-17{fill:url(#linear-gradient-16);}.cls-18{fill:url(#linear-gradient-17);}.cls-19{fill:url(#linear-gradient-18);}.cls-20{fill:url(#linear-gradient-19);}.cls-21{fill:url(#linear-gradient-20);}.cls-22{fill:url(#linear-gradient-21);}.cls-23{fill:url(#linear-gradient-22);}.cls-24{fill:url(#linear-gradient-23);}.cls-25{fill:url(#linear-gradient-24);}.cls-26{fill:url(#linear-gradient-25);}.cls-27{fill:url(#linear-gradient-26);}.cls-28{fill:url(#linear-gradient-27);}.cls-29{fill:url(#linear-gradient-28);}.cls-30{fill:url(#linear-gradient-29);}.cls-31{fill:url(#linear-gradient-30);}.cls-32{fill:url(#linear-gradient-31);}.cls-33{fill:url(#linear-gradient-32);}.cls-34{fill:url(#linear-gradient-33);}.cls-35{fill:url(#linear-gradient-34);}.cls-36{fill:url(#linear-gradient-35);}.cls-37{fill:url(#linear-gradient-36);}.cls-38{fill:url(#linear-gradient-37);}.cls-39{fill:url(#linear-gradient-38);}.cls-40{fill:url(#linear-gradient-39);}.cls-41{fill:url(#linear-gradient-40);}.cls-42{fill:url(#linear-gradient-41);}.cls-43{fill:url(#linear-gradient-42);}.cls-44{fill:url(#linear-gradient-43);}.cls-45{fill:url(#linear-gradient-44);}.cls-46{fill:url(#linear-gradient-45);}.cls-47{fill:url(#linear-gradient-46);}.cls-48{fill:url(#linear-gradient-47);}.cls-49{fill:url(#linear-gradient-48);}.cls-50{fill:url(#linear-gradient-49);}.cls-51{fill:url(#linear-gradient-50);}.cls-52{fill:url(#linear-gradient-51);}.cls-53{fill:url(#linear-gradient-52);}.cls-54{fill:url(#linear-gradient-53);}.cls-55{fill:url(#linear-gradient-54);}.cls-56{fill:url(#linear-gradient-55);}.cls-57{fill:url(#linear-gradient-56);}.cls-58{fill:url(#linear-gradient-57);}.cls-59{fill:url(#linear-gradient-58);}.cls-60{fill:url(#linear-gradient-59);}.cls-61{fill:url(#linear-gradient-60);}.cls-62{fill:url(#linear-gradient-61);}.cls-63{fill:url(#linear-gradient-62);}.cls-64{fill:url(#linear-gradient-63);}.cls-65{fill:url(#linear-gradient-64);}.cls-66{fill:url(#linear-gradient-65);}.cls-67{fill:url(#linear-gradient-66);}.cls-68{fill:url(#linear-gradient-67);}.cls-69{fill:url(#linear-gradient-68);}.cls-70{mix-blend-mode:multiply;fill:url(#linear-gradient-69);}.cls-71{fill:url(#Degradado_sin_nombre_8);}.cls-72{fill:url(#Degradado_sin_nombre_8-2);}.cls-73{fill:url(#Degradado_sin_nombre_8-3);}.cls-74{fill:url(#Degradado_sin_nombre_8-4);}.cls-75{fill:url(#Degradado_sin_nombre_8-5);}.cls-76{fill:url(#Degradado_sin_nombre_8-6);}.cls-77{fill:url(#Degradado_sin_nombre_8-7);}.cls-78{fill:url(#Degradado_sin_nombre_8-8);}</style><linearGradient id="linear-gradient" x1="0.18" y1="954.65" x2="0.18" y2="-64.65" gradientUnits="userSpaceOnUse"><stop offset="0.2"/><stop offset="0.65" stop-color="#231f20"/></linearGradient><linearGradient id="linear-gradient-2" x1="19.04" y1="954.65" x2="19.04" y2="-64.65" xlink:href="#linear-gradient"/><linearGradient id="linear-gradient-3" x1="37.9" y1="954.65" x2="37.9" y2="-64.65" xlink:href="#linear-gradient"/><linearGradient id="linear-gradient-4" x1="56.75" y1="954.65" x2="56.75" y2="-64.65" xlink:href="#linear-gradient"/><linearGradient id="linear-gradient-5" x1="75.61" y1="954.65" x2="75.61" y2="-64.65" xlink:href="#linear-gradient"/><linearGradient id="linear-gradient-6" x1="94.46" y1="954.65" x2="94.46" y2="-64.65" xlink:href="#linear-gradient"/><linearGradient id="linear-gradient-7" x1="113.32" y1="954.65" x2="113.32" y2="-64.65" xlink:href="#linear-gradient"/><linearGradient id="linear-gradient-8" x1="132.17" y1="954.65" x2="132.17" y2="-64.65" xlink:href="#linear-gradient"/><linearGradient id="linear-gradient-9" x1="151.03" y1="954.65" x2="151.03" y2="-64.65" xlink:href="#linear-gradient"/><linearGradient id="linear-gradient-10" x1="169.89" y1="954.65" x2="169.89" y2="-64.65" xlink:href="#linear-gradient"/><linearGradient id="linear-gradient-11" x1="188.74" y1="954.65" x2="188.74" y2="-64.65" xlink:href="#linear-gradient"/><linearGradient id="linear-gradient-12" x1="207.6" y1="954.65" x2="207.6" y2="-64.65" xlink:href="#linear-gradient"/><linearGradient id="linear-gradient-13" x1="226.45" y1="954.65" x2="226.45" y2="-64.65" xlink:href="#linear-gradient"/><linearGradient id="linear-gradient-14" x1="245.31" y1="954.65" x2="245.31" y2="-64.65" xlink:href="#linear-gradient"/><linearGradient id="linear-gradient-15" x1="264.17" y1="954.65" x2="264.17" y2="-64.65" xlink:href="#linear-gradient"/><linearGradient id="linear-gradient-16" x1="283.02" y1="954.65" x2="283.02" y2="-64.65" xlink:href="#linear-gradient"/><linearGradient id="linear-gradient-17" x1="301.88" y1="954.65" x2="301.88" y2="-64.65" xlink:href="#linear-gradient"/><linearGradient id="linear-gradient-18" x1="320.73" y1="954.65" x2="320.73" y2="-64.65" xlink:href="#linear-gradient"/><linearGradient id="linear-gradient-19" x1="339.59" y1="954.65" x2="339.59" y2="-64.65" xlink:href="#linear-gradient"/><linearGradient id="linear-gradient-20" x1="358.44" y1="954.65" x2="358.44" y2="-64.65" xlink:href="#linear-gradient"/><linearGradient id="linear-gradient-21" x1="377.3" y1="954.65" x2="377.3" y2="-64.65" xlink:href="#linear-gradient"/><linearGradient id="linear-gradient-22" x1="396.16" y1="954.65" x2="396.16" y2="-64.65" xlink:href="#linear-gradient"/><linearGradient id="linear-gradient-23" x1="415.01" y1="954.65" x2="415.01" y2="-64.65" xlink:href="#linear-gradient"/><linearGradient id="linear-gradient-24" x1="433.87" y1="954.65" x2="433.87" y2="-64.65" xlink:href="#linear-gradient"/><linearGradient id="linear-gradient-25" x1="452.72" y1="954.65" x2="452.72" y2="-64.65" xlink:href="#linear-gradient"/><linearGradient id="linear-gradient-26" x1="471.58" y1="954.65" x2="471.58" y2="-64.65" xlink:href="#linear-gradient"/><linearGradient id="linear-gradient-27" x1="490.43" y1="954.65" x2="490.43" y2="-64.65" xlink:href="#linear-gradient"/><linearGradient id="linear-gradient-28" x1="509.29" y1="954.65" x2="509.29" y2="-64.65" xlink:href="#linear-gradient"/><linearGradient id="linear-gradient-29" x1="528.15" y1="954.65" x2="528.15" y2="-64.65" xlink:href="#linear-gradient"/><linearGradient id="linear-gradient-30" x1="547" y1="954.65" x2="547" y2="-64.65" xlink:href="#linear-gradient"/><linearGradient id="linear-gradient-31" x1="565.86" y1="954.65" x2="565.86" y2="-64.65" xlink:href="#linear-gradient"/><linearGradient id="linear-gradient-32" x1="584.71" y1="954.65" x2="584.71" y2="-64.65" xlink:href="#linear-gradient"/><linearGradient id="linear-gradient-33" x1="603.57" y1="954.65" x2="603.57" y2="-64.65" xlink:href="#linear-gradient"/><linearGradient id="linear-gradient-34" x1="622.42" y1="954.65" x2="622.42" y2="-64.65" xlink:href="#linear-gradient"/><linearGradient id="linear-gradient-35" x1="-5305.85" y1="-1938.18" x2="-5305.85" y2="-2957.47" gradientTransform="translate(-3386.04 -2002.82) rotate(180)" gradientUnits="userSpaceOnUse"><stop offset="0.2"/><stop offset="1" stop-color="#231f20"/></linearGradient><linearGradient id="linear-gradient-36" x1="-5287" y1="-1938.18" x2="-5287" y2="-2957.47" xlink:href="#linear-gradient-35"/><linearGradient id="linear-gradient-37" x1="-5268.14" y1="-1938.18" x2="-5268.14" y2="-2957.47" xlink:href="#linear-gradient-35"/><linearGradient id="linear-gradient-38" x1="-5249.29" y1="-1938.18" x2="-5249.29" y2="-2957.47" xlink:href="#linear-gradient-35"/><linearGradient id="linear-gradient-39" x1="-5230.43" y1="-1938.18" x2="-5230.43" y2="-2957.47" xlink:href="#linear-gradient-35"/><linearGradient id="linear-gradient-40" x1="-5211.58" y1="-1938.18" x2="-5211.58" y2="-2957.47" xlink:href="#linear-gradient-35"/><linearGradient id="linear-gradient-41" x1="-5192.72" y1="-1938.18" x2="-5192.72" y2="-2957.47" xlink:href="#linear-gradient-35"/><linearGradient id="linear-gradient-42" x1="-5173.86" y1="-1938.18" x2="-5173.86" y2="-2957.47" xlink:href="#linear-gradient-35"/><linearGradient id="linear-gradient-43" x1="-5155.01" y1="-1938.18" x2="-5155.01" y2="-2957.47" xlink:href="#linear-gradient-35"/><linearGradient id="linear-gradient-44" x1="-5136.15" y1="-1938.18" x2="-5136.15" y2="-2957.47" xlink:href="#linear-gradient-35"/><linearGradient id="linear-gradient-45" x1="-5117.3" y1="-1938.18" x2="-5117.3" y2="-2957.47" xlink:href="#linear-gradient-35"/><linearGradient id="linear-gradient-46" x1="-5098.44" y1="-1938.18" x2="-5098.44" y2="-2957.47" xlink:href="#linear-gradient-35"/><linearGradient id="linear-gradient-47" x1="-5079.59" y1="-1938.18" x2="-5079.59" y2="-2957.47" xlink:href="#linear-gradient-35"/><linearGradient id="linear-gradient-48" x1="-5060.73" y1="-1938.18" x2="-5060.73" y2="-2957.47" xlink:href="#linear-gradient-35"/><linearGradient id="linear-gradient-49" x1="-5041.87" y1="-1938.18" x2="-5041.87" y2="-2957.47" xlink:href="#linear-gradient-35"/><linearGradient id="linear-gradient-50" x1="-5023.02" y1="-1938.18" x2="-5023.02" y2="-2957.47" xlink:href="#linear-gradient-35"/><linearGradient id="linear-gradient-51" x1="-5004.16" y1="-1938.18" x2="-5004.16" y2="-2957.47" xlink:href="#linear-gradient-35"/><linearGradient id="linear-gradient-52" x1="-4985.31" y1="-1938.18" x2="-4985.31" y2="-2957.47" xlink:href="#linear-gradient-35"/><linearGradient id="linear-gradient-53" x1="-4966.45" y1="-1938.18" x2="-4966.45" y2="-2957.47" xlink:href="#linear-gradient-35"/><linearGradient id="linear-gradient-54" x1="-4947.59" y1="-1938.18" x2="-4947.59" y2="-2957.47" xlink:href="#linear-gradient-35"/><linearGradient id="linear-gradient-55" x1="-4928.74" y1="-1938.18" x2="-4928.74" y2="-2957.47" xlink:href="#linear-gradient-35"/><linearGradient id="linear-gradient-56" x1="-4909.88" y1="-1938.18" x2="-4909.88" y2="-2957.47" xlink:href="#linear-gradient-35"/><linearGradient id="linear-gradient-57" x1="-4891.03" y1="-1938.18" x2="-4891.03" y2="-2957.47" xlink:href="#linear-gradient-35"/><linearGradient id="linear-gradient-58" x1="-4872.17" y1="-1938.18" x2="-4872.17" y2="-2957.47" xlink:href="#linear-gradient-35"/><linearGradient id="linear-gradient-59" x1="-4853.32" y1="-1938.18" x2="-4853.32" y2="-2957.47" xlink:href="#linear-gradient-35"/><linearGradient id="linear-gradient-60" x1="-4834.46" y1="-1938.18" x2="-4834.46" y2="-2957.47" xlink:href="#linear-gradient-35"/><linearGradient id="linear-gradient-61" x1="-4815.6" y1="-1938.18" x2="-4815.6" y2="-2957.47" xlink:href="#linear-gradient-35"/><linearGradient id="linear-gradient-62" x1="-4796.75" y1="-1938.18" x2="-4796.75" y2="-2957.47" xlink:href="#linear-gradient-35"/><linearGradient id="linear-gradient-63" x1="-4777.89" y1="-1938.18" x2="-4777.89" y2="-2957.47" xlink:href="#linear-gradient-35"/><linearGradient id="linear-gradient-64" x1="-4759.04" y1="-1938.18" x2="-4759.04" y2="-2957.47" xlink:href="#linear-gradient-35"/><linearGradient id="linear-gradient-65" x1="-4740.18" y1="-1938.18" x2="-4740.18" y2="-2957.47" xlink:href="#linear-gradient-35"/><linearGradient id="linear-gradient-66" x1="-4721.33" y1="-1938.18" x2="-4721.33" y2="-2957.47" xlink:href="#linear-gradient-35"/><linearGradient id="linear-gradient-67" x1="-4702.47" y1="-1938.18" x2="-4702.47" y2="-2957.47" xlink:href="#linear-gradient-35"/><linearGradient id="linear-gradient-68" x1="-4683.61" y1="-1938.18" x2="-4683.61" y2="-2957.47" xlink:href="#linear-gradient-35"/><linearGradient id="linear-gradient-69" x1="427.79" y1="445" x2="1492.21" y2="445" gradientUnits="userSpaceOnUse"><stop offset="0" stop-color="#fff"/><stop offset="0.25"/><stop offset="0.29"/><stop offset="0.51"/><stop offset="0.55"/><stop offset="0.81"/><stop offset="0.81" stop-color="#0e0e0e"/><stop offset="0.82" stop-color="#404040"/><stop offset="0.84" stop-color="#6d6d6d"/><stop offset="0.86" stop-color="#949494"/><stop offset="0.87" stop-color="#b6b6b6"/><stop offset="0.89" stop-color="#d0d0d0"/><stop offset="0.91" stop-color="#e5e5e5"/><stop offset="0.93" stop-color="#f4f4f4"/><stop offset="0.96" stop-color="#fcfcfc"/><stop offset="1" stop-color="#fff"/></linearGradient><linearGradient id="Degradado_sin_nombre_8" x1="1309.62" y1="310.09" x2="1739.26" y2="739.72" gradientUnits="userSpaceOnUse"><stop offset="0" stop-color="#723d26"/><stop offset="0.45" stop-color="#c68960"/><stop offset="0.56" stop-color="#bb7f58"/><stop offset="0.76" stop-color="#9c6343"/><stop offset="1" stop-color="#723d26"/></linearGradient><linearGradient id="Degradado_sin_nombre_8-2" x1="1438.5" y1="181.21" x2="1868.14" y2="610.84" xlink:href="#Degradado_sin_nombre_8"/><linearGradient id="Degradado_sin_nombre_8-3" x1="985.12" y1="634.59" x2="1414.75" y2="1064.22" xlink:href="#Degradado_sin_nombre_8"/><linearGradient id="Degradado_sin_nombre_8-4" x1="1457.57" y1="162.13" x2="1887.21" y2="591.77" xlink:href="#Degradado_sin_nombre_8"/><linearGradient id="Degradado_sin_nombre_8-5" x1="1420.85" y1="198.86" x2="1850.48" y2="628.5" xlink:href="#Degradado_sin_nombre_8"/><linearGradient id="Degradado_sin_nombre_8-6" x1="1439.21" y1="180.5" x2="1868.85" y2="610.13" gradientTransform="translate(891.2 -1143.1) rotate(55.07)" xlink:href="#Degradado_sin_nombre_8"/><linearGradient id="Degradado_sin_nombre_8-7" x1="1236.55" y1="383.15" x2="1666.19" y2="812.79" xlink:href="#Degradado_sin_nombre_8"/><linearGradient id="Degradado_sin_nombre_8-8" x1="1212.4" y1="407.31" x2="1642.04" y2="836.94" xlink:href="#Degradado_sin_nombre_8"/></defs><g class="cls-1"><g id="Layer_1" data-name="Layer 1"><rect x="-59.29" y="-64.65" width="2038.59" height="1019.29"/><rect class="cls-2" x="-2.73" y="-64.65" width="5.82" height="1019.29"/><rect class="cls-3" x="16.13" y="-64.65" width="5.82" height="1019.29"/><rect class="cls-4" x="34.99" y="-64.65" width="5.82" height="1019.29"/><rect class="cls-5" x="53.84" y="-64.65" width="5.82" height="1019.29"/><rect class="cls-6" x="72.7" y="-64.65" width="5.82" height="1019.29"/><rect class="cls-7" x="91.55" y="-64.65" width="5.82" height="1019.29"/><rect class="cls-8" x="110.41" y="-64.65" width="5.82" height="1019.29"/><rect class="cls-9" x="129.26" y="-64.65" width="5.82" height="1019.29"/><rect class="cls-10" x="148.12" y="-64.65" width="5.82" height="1019.29"/><rect class="cls-11" x="166.98" y="-64.65" width="5.82" height="1019.29"/><rect class="cls-12" x="185.83" y="-64.65" width="5.82" height="1019.29"/><rect class="cls-13" x="204.69" y="-64.65" width="5.82" height="1019.29"/><rect class="cls-14" x="223.54" y="-64.65" width="5.82" height="1019.29"/><rect class="cls-15" x="242.4" y="-64.65" width="5.82" height="1019.29"/><rect class="cls-16" x="261.25" y="-64.65" width="5.82" height="1019.29"/><rect class="cls-17" x="280.11" y="-64.65" width="5.82" height="1019.29"/><rect class="cls-18" x="298.97" y="-64.65" width="5.82" height="1019.29"/><rect class="cls-19" x="317.82" y="-64.65" width="5.82" height="1019.29"/><rect class="cls-20" x="336.68" y="-64.65" width="5.82" height="1019.29"/><rect class="cls-21" x="355.53" y="-64.65" width="5.82" height="1019.29"/><rect class="cls-22" x="374.39" y="-64.65" width="5.82" height="1019.29"/><rect class="cls-23" x="393.24" y="-64.65" width="5.82" height="1019.29"/><rect class="cls-24" x="412.1" y="-64.65" width="5.82" height="1019.29"/><rect class="cls-25" x="430.96" y="-64.65" width="5.82" height="1019.29"/><rect class="cls-26" x="449.81" y="-64.65" width="5.82" height="1019.29"/><rect class="cls-27" x="468.67" y="-64.65" width="5.82" height="1019.29"/><rect class="cls-28" x="487.52" y="-64.65" width="5.82" height="1019.29"/><rect class="cls-29" x="506.38" y="-64.65" width="5.82" height="1019.29"/><rect class="cls-30" x="525.24" y="-64.65" width="5.82" height="1019.29"/><rect class="cls-31" x="544.09" y="-64.65" width="5.82" height="1019.29"/><rect class="cls-32" x="562.95" y="-64.65" width="5.82" height="1019.29"/><rect class="cls-33" x="581.8" y="-64.65" width="5.82" height="1019.29"/><rect class="cls-34" x="600.66" y="-64.65" width="5.82" height="1019.29"/><rect class="cls-35" x="619.51" y="-64.65" width="5.82" height="1019.29"/><rect class="cls-36" x="1916.9" y="-64.65" width="5.82" height="1019.29"/><rect class="cls-37" x="1898.05" y="-64.65" width="5.82" height="1019.29"/><rect class="cls-38" x="1879.19" y="-64.65" width="5.82" height="1019.29"/><rect class="cls-39" x="1860.34" y="-64.65" width="5.82" height="1019.29"/><rect class="cls-40" x="1841.48" y="-64.65" width="5.82" height="1019.29"/><rect class="cls-41" x="1822.62" y="-64.65" width="5.82" height="1019.29"/><rect class="cls-42" x="1803.77" y="-64.65" width="5.82" height="1019.29"/><rect class="cls-43" x="1784.91" y="-64.65" width="5.82" height="1019.29"/><rect class="cls-44" x="1766.06" y="-64.65" width="5.82" height="1019.29"/><rect class="cls-45" x="1747.2" y="-64.65" width="5.82" height="1019.29"/><rect class="cls-46" x="1728.35" y="-64.65" width="5.82" height="1019.29"/><rect class="cls-47" x="1709.49" y="-64.65" width="5.82" height="1019.29"/><rect class="cls-48" x="1690.63" y="-64.65" width="5.82" height="1019.29"/><rect class="cls-49" x="1671.78" y="-64.65" width="5.82" height="1019.29"/><rect class="cls-50" x="1652.92" y="-64.65" width="5.82" height="1019.29"/><rect class="cls-51" x="1634.07" y="-64.65" width="5.82" height="1019.29"/><rect class="cls-52" x="1615.21" y="-64.65" width="5.82" height="1019.29"/><rect class="cls-53" x="1596.36" y="-64.65" width="5.82" height="1019.29"/><rect class="cls-54" x="1577.5" y="-64.65" width="5.82" height="1019.29"/><rect class="cls-55" x="1558.64" y="-64.65" width="5.82" height="1019.29"/><rect class="cls-56" x="1539.79" y="-64.65" width="5.82" height="1019.29"/><rect class="cls-57" x="1520.93" y="-64.65" width="5.82" height="1019.29"/><rect class="cls-58" x="1502.08" y="-64.65" width="5.82" height="1019.29"/><rect class="cls-59" x="1483.22" y="-64.65" width="5.82" height="1019.29"/><rect class="cls-60" x="1464.37" y="-64.65" width="5.82" height="1019.29"/><rect class="cls-61" x="1445.51" y="-64.65" width="5.82" height="1019.29"/><rect class="cls-62" x="1426.65" y="-64.65" width="5.82" height="1019.29"/><rect class="cls-63" x="1407.8" y="-64.65" width="5.82" height="1019.29"/><rect class="cls-64" x="1388.94" y="-64.65" width="5.82" height="1019.29"/><rect class="cls-65" x="1370.09" y="-64.65" width="5.82" height="1019.29"/><rect class="cls-66" x="1351.23" y="-64.65" width="5.82" height="1019.29"/><rect class="cls-67" x="1332.38" y="-64.65" width="5.82" height="1019.29"/><rect class="cls-68" x="1313.52" y="-64.65" width="5.82" height="1019.29"/><rect class="cls-69" x="1294.66" y="-64.65" width="5.82" height="1019.29"/><rect class="cls-70" x="427.79" y="-64.65" width="1064.41" height="1019.29"/><path class="cls-71" d="M1583,639h49.89v40.42H1451.12V639h49.54v-.11c0-76.83-48.82-120.72-49.32-121.16a6.91,6.91,0,0,1-1.71-8.07l85.82-188.47a5.73,5.73,0,0,1,.74-1.24V489.71a21.85,21.85,0,1,0,11.1,0V319.91a6,6,0,0,1,.76,1.27l86,188.49a6.94,6.94,0,0,1-1.73,8.07c-.49.42-49.31,44.6-49.31,121.16Z"/><rect class="cls-72" x="1526.74" y="269.45" width="26.77" height="26.77"/><rect class="cls-73" x="1176.22" y="825.68" width="26.77" height="26.77"/><path class="cls-74" d="M1677.09,368.09a13.56,13.56,0,1,1-13.56-13.55A13.56,13.56,0,0,1,1677.09,368.09Z"/><path class="cls-75" d="M1433.63,198.09a13.56,13.56,0,1,1-13.56-13.56A13.57,13.57,0,0,1,1433.63,198.09Z"/><rect class="cls-76" x="1538.41" y="134.62" width="6.8" height="296.94" transform="translate(426.99 1385.13) rotate(-55.07)"/><rect class="cls-77" x="1451.12" y="683.19" width="181.72" height="10.79"/><path class="cls-78" d="M1189.74,842.46l-.28-6.78c55.79-2.36,96-18.16,122.82-48.32,51.85-58.24,44.33-159.79,37.06-258-2.5-33.74-4.86-65.6-4.86-95.58,0-43.2,13.85-78.31,41.16-104.34,57.19-54.5,152.31-50.57,156.33-50.39l-.32,6.79c-1,0-96.29-3.95-151.34,48.54-25.9,24.7-39,58.14-39,99.4,0,29.73,2.35,61.47,4.84,95.08,7.38,99.62,15,202.63-38.75,263C1289.22,823.49,1247.48,840,1189.74,842.46Z"/></g></g></svg>