<svg id="Layer_1" data-name="Layer 1" xmlns="http://www.w3.org/2000/svg" xmlns:xlink="http://www.w3.org/1999/xlink" viewBox="0 0 1005.41 1024"><defs><style>.cls-1{fill:url(#Degradado_sin_nombre_8);}.cls-2{fill:url(#Degradado_sin_nombre_8-2);}.cls-3{fill:url(#Degradado_sin_nombre_8-3);}.cls-4{fill:url(#Degradado_sin_nombre_8-4);}.cls-5{fill:url(#Degradado_sin_nombre_8-5);}.cls-6{fill:url(#Degradado_sin_nombre_8-6);}.cls-7{fill:url(#Degradado_sin_nombre_8-7);}.cls-8{fill:url(#Degradado_sin_nombre_8-8);}.cls-9{fill:url(#Degradado_sin_nombre_8-9);}.cls-10{fill:url(#Degradado_sin_nombre_8-10);}.cls-11{fill:url(#Degradado_sin_nombre_8-11);}.cls-12{fill:url(#Degradado_sin_nombre_8-12);}.cls-13{fill:url(#Degradado_sin_nombre_8-13);}.cls-14{fill:url(#Degradado_sin_nombre_8-14);}.cls-15{fill:url(#Degradado_sin_nombre_8-15);}.cls-16{fill:url(#Degradado_sin_nombre_8-16);}.cls-17{fill:url(#Degradado_sin_nombre_8-17);}</style><linearGradient id="Degradado_sin_nombre_8" x1="28.44" y1="2" x2="28.44" y2="1015.83" gradientUnits="userSpaceOnUse"><stop offset="0" stop-color="#723d26"/><stop offset="0.45" stop-color="#c68960"/><stop offset="0.56" stop-color="#bb7f58"/><stop offset="0.76" stop-color="#9c6343"/><stop offset="1" stop-color="#723d26"/></linearGradient><linearGradient id="Degradado_sin_nombre_8-2" x1="31.87" y1="2" x2="31.87" y2="1015.83" xlink:href="#Degradado_sin_nombre_8"/><linearGradient id="Degradado_sin_nombre_8-3" x1="123.79" y1="2" x2="123.79" y2="1015.83" xlink:href="#Degradado_sin_nombre_8"/><linearGradient id="Degradado_sin_nombre_8-4" x1="396.45" y1="2" x2="396.45" y2="1015.83" xlink:href="#Degradado_sin_nombre_8"/><linearGradient id="Degradado_sin_nombre_8-5" x1="440.72" y1="2" x2="440.72" y2="1015.83" xlink:href="#Degradado_sin_nombre_8"/><linearGradient id="Degradado_sin_nombre_8-6" x1="397.06" y1="2" x2="397.06" y2="1015.83" xlink:href="#Degradado_sin_nombre_8"/><linearGradient id="Degradado_sin_nombre_8-7" x1="662.29" y1="2" x2="662.29" y2="1015.83" xlink:href="#Degradado_sin_nombre_8"/><linearGradient id="Degradado_sin_nombre_8-8" x1="793.31" y1="2" x2="793.31" y2="1015.83" xlink:href="#Degradado_sin_nombre_8"/><linearGradient id="Degradado_sin_nombre_8-9" x1="31.86" y1="2" x2="31.86" y2="1015.83" xlink:href="#Degradado_sin_nombre_8"/><linearGradient id="Degradado_sin_nombre_8-10" x1="31.87" y1="2" x2="31.87" y2="1015.83" xlink:href="#Degradado_sin_nombre_8"/><linearGradient id="Degradado_sin_nombre_8-11" x1="31.91" y1="2" x2="31.91" y2="1015.83" xlink:href="#Degradado_sin_nombre_8"/><linearGradient id="Degradado_sin_nombre_8-12" x1="222.33" y1="2" x2="222.33" y2="1015.83" xlink:href="#Degradado_sin_nombre_8"/><linearGradient id="Degradado_sin_nombre_8-13" x1="499.87" y1="2" x2="499.87" y2="1015.83" xlink:href="#Degradado_sin_nombre_8"/><linearGradient id="Degradado_sin_nombre_8-14" x1="426.42" y1="2" x2="426.42" y2="1015.83" xlink:href="#Degradado_sin_nombre_8"/><linearGradient id="Degradado_sin_nombre_8-15" x1="945.06" y1="2" x2="945.06" y2="1015.83" xlink:href="#Degradado_sin_nombre_8"/><linearGradient id="Degradado_sin_nombre_8-16" x1="945.06" y1="2" x2="945.06" y2="1015.83" xlink:href="#Degradado_sin_nombre_8"/><linearGradient id="Degradado_sin_nombre_8-17" x1="946.05" y1="2" x2="946.05" y2="1015.83" xlink:href="#Degradado_sin_nombre_8"/></defs><polygon class="cls-1" points="33.13 16.32 23.76 16.32 23.76 0.18 25.14 0.18 33.13 16.32"/><rect class="cls-2" x="23.8" y="527.52" width="16.14" height="440.96"/><polygon class="cls-3" points="223.78 401.38 206.83 401.38 206.83 403.64 197.71 385.24 39.94 66.37 39.94 496.44 23.8 496.44 23.8 47.41 47.44 47.41 47.44 45.15 56.56 63.55 215.79 385.24 223.78 401.38"/><polygon class="cls-4" points="396.05 785.91 396.86 785.91 396.45 786.79 396.05 785.91"/><polygon class="cls-5" points="660.35 255.2 652.37 271.34 420.34 738.7 412.35 754.84 381.52 754.84 381.52 756.61 372.64 738.7 229.07 448.57 221.08 432.43 237.87 432.43 237.87 429.92 247.07 448.57 390.64 738.7 396.45 750.4 402.26 738.7 634.37 271.34 646.72 246.4 646.72 255.2 660.35 255.2"/><path class="cls-6" d="M365.38,738.7v63.35h63.35V738.7Zm47.21,47.21H381.52V754.84h31.07Z"/><path class="cls-7" d="M630.57,208v63.35H694V208Zm47.3,47.21H646.72V224.13h31.15Z"/><path class="cls-8" d="M761.64.18V63.53H825V.18Zm47.21,47.21H777.78V16.32h31.07Z"/><path class="cls-9" d="M63.55,1023.82H.17V960.45H63.55Zm-47.24-16.14h31.1V976.59H16.31Z"/><path class="cls-10" d="M.2.18V63.53H63.55V.18ZM47.41,47.39H16.34V16.32H47.41Z"/><path class="cls-11" d="M.23,480.3v63.36H63.58V480.3Zm47.21,47.22H16.37V496.44H47.44Z"/><path class="cls-12" d="M190.66,385.21v63.36H254V385.21Zm47.21,47.22H206.8V401.35h31.07Z"/><path class="cls-13" d="M773.2,8.25l.49,55.28,3.87,463.4,1.13,129.69.56,64.81.08,16.22.09,8.15-.17,7.26a190.85,190.85,0,0,1-4.19,29.78c-18.32,80-70.54,155-145,191.83a273.52,273.52,0,0,1-58.35,21.07,332.92,332.92,0,0,1-62.14,7.5c-42,.81-84.17-6-125.17-17.11-10.49-2.42-20-6.45-30.1-9.6-5-1.53-9.61-4.12-14.45-6.13-4.68-2.26-9.68-4-14.12-6.7-9-5.25-18.4-9.93-26.63-16.38-4.12-3.15-8.72-5.81-12.51-9.37L274.78,927.7c-30.43-28.56-52.7-65.77-64.24-106.28-3.47-10-5.09-20.42-7.43-30.75l-2.18-15.74a127.29,127.29,0,0,1-1.53-15.73c-1.94-21.15-.65-42.45,1.45-63.6,5.33-42.21,17.27-83.77,36.4-122,9.12-19.29,20.58-37.45,32.93-54.88,6.61-8.39,12.75-17.11,20.09-24.94,3.63-3.95,7-8.15,10.82-11.86l11.45-11.22a303,303,0,0,1,81.6-55.2c8.87-4.2,18-7.91,27.27-11.22l-1.21-3.71a23.38,23.38,0,0,0-4.76,1c-2.1.72-4.19,1.45-6.29,2.34a311.61,311.61,0,0,0-101.29,61.82L296,476.89c-3.95,3.72-7.5,7.91-11.22,11.95-7.66,7.83-14.2,16.62-21.06,25.1-12.91,17.59-25,35.91-34.7,55.52-20.26,38.82-33.33,81.27-39.55,124.69-2.58,21.79-4.28,43.82-2.66,65.77a123,123,0,0,0,1.29,16.47L190,792.85c2.26,10.81,3.87,21.79,7.26,32.36a250,250,0,0,0,66.34,114.12l12.43,11.29c4.11,3.8,8.87,6.78,13.31,10.17,8.72,7.11,18.56,12.35,28.17,18.08,4.76,3,10,4.92,15,7.43,5.08,2.26,10,5.08,15.25,6.86,10.49,3.55,20.9,8.07,31.56,10.65,42,12.18,85.95,20.09,130.5,20a354.78,354.78,0,0,0,66.5-6.94,294.18,294.18,0,0,0,63.75-21.79C681,975.8,716.31,945.7,743.58,910a329.1,329.1,0,0,0,57.95-121.06,226.13,226.13,0,0,0,5.41-34.21l.32-8.88.08-8.15.16-16.22.57-64.81,1-129.69,4-463.4.48-55.28Zm35.67,39.14H777.8V16.32h31.07Z"/><path class="cls-14" d="M468,441.63a41.56,41.56,0,0,1-83.12,0,40.87,40.87,0,0,1,9.28-26.15,39.21,39.21,0,0,1,15-11.62,29.05,29.05,0,0,1,6.29-2.34,23.38,23.38,0,0,1,4.76-1,31.37,31.37,0,0,1,6.22-.57A41.58,41.58,0,0,1,468,441.63Z"/><path class="cls-15" d="M886.87,917.43h116.38v11.63H904.49l68.17,40.74v1.65l-68.17,40.74h98.76v11.63H886.87v-14.27L952,970.63,886.87,931.7Z"/><path class="cls-16" d="M987.71,741.36q17.53,17.46,17.53,42.73t-17.53,42.72q-17.55,17.48-42.65,17.46t-42.65-17.46q-17.53-17.44-17.54-42.72t17.54-42.73Q920,723.92,945.06,723.9T987.71,741.36Zm-8,77.31q14.22-14,14.22-34.58t-14.22-34.58q-14.21-14-34.66-14t-34.67,14q-14.21,13.95-14.21,34.58t14.21,34.58q14.22,14,34.67,14T979.72,818.67Z"/><path class="cls-17" d="M1005.24,628.64a45.6,45.6,0,0,1-5.07,21.7,29.39,29.39,0,0,1-14.88,13.71l-5.82-9.81q14.47-5.47,14.47-25.6,0-12.14-5.82-19.37T970.33,602H886.87V590.4h83.46q16.95,0,25.94,10.89T1005.24,628.64Z"/><path class="cls-15" d="M1003.25,438.1l-28.6,10.79v55.23l28.6,10.79v12.3L886.87,482.5v-12l116.38-44.72ZM963.68,500V453L901.45,476.5Z"/><path class="cls-15" d="M886.87,282.82V271.18h116.38v11.64H948.88V346h54.37v11.63H886.87V346h51V282.82Z"/><path class="cls-15" d="M886.87,191.37V179.74h116.38v11.63Z"/><path class="cls-15" d="M886.87,55.05q0-23.77,16.87-39.32T945.06.18q24.44,0,41.31,15.55t16.88,39.32V99.93H886.87Zm105.41,0q0-19.12-13.64-31.34T945.06,11.48q-19.95,0-33.59,12.23T897.84,55.05V88.3h94.44Z"/></svg>